<svg xmlns="http://www.w3.org/2000/svg" viewBox="0 0 512 512">
<title>Favicon Estudio Soulé</title>
<rect width="512" height="512" fill="#123B5D"/>
<svg x="42" y="65" width="428" height="382" viewBox="215 210 575 380" preserveAspectRatio="xMidYMid meet">
<path transform="matrix(1,0,0,-1,484.6235,571.7344)" d="M0 0H-59.606V259.003L0 214.255Z" fill="#ffffff"/>
<path transform="matrix(1,0,0,-1,399.7764,571.7344)" d="M0 0H12.437V259.003L.232 249.585Z" fill="#ffffff"/>
<path transform="matrix(1,0,0,-1,375.6772,571.7344)" d="M0 0H12.439V241.627L.233 232.209Z" fill="#ffffff"/>
<path transform="matrix(1,0,0,-1,351.5786,571.7344)" d="M0 0H12.439V222.671L.233 213.254Z" fill="#ffffff"/>
<path transform="matrix(1,0,0,-1,327.4814,571.7344)" d="M0 0H12.438V205.295L.232 195.877Z" fill="#ffffff"/>
<path transform="matrix(1,0,0,-1,491.2358,571.7344)" d="M0 0H84.883V349.042L0 285.338Z" fill="#ffffff"/>
<path transform="matrix(1,0,0,-1,601.8862,571.7344)" d="M0 0H-12.438V345.883L-.231 336.465Z" fill="#ffffff"/>
<path transform="matrix(1,0,0,-1,625.9858,571.7344)" d="M0 0H-12.44V328.507L-.234 319.089Z" fill="#ffffff"/>
<path transform="matrix(1,0,0,-1,650.0835,571.7344)" d="M0 0H-12.439V309.551L-.232 300.134Z" fill="#ffffff"/>
<path transform="matrix(1,0,0,-1,674.1821,571.7344)" d="M0 0H-12.439V292.175L-.234 282.758Z" fill="#ffffff"/>
<path transform="matrix(1,0,0,-1,678.8638,422.80958)" d="M0 0C46.899-38.414 80.069-91.352 91.646-151.388 87.787-79.692 53.052-15.686-.267 29.039" fill="#ffffff"/>
<path transform="matrix(1,0,0,-1,323.5937,385.72358)" d="M0 0C-58.984-44.91-97.879-112.36-101.976-188.474-89.554-124.044-52.262-67.794 .174-28.895" fill="#ffffff"/>
<path transform="matrix(1,0,0,-1,458.3105,331.22358)" d="M0 0C10.266-7.697 26.313-18.956 26.313-18.956V2.658C26.313 2.658 14.318 2.229 0 0" fill="#ffffff"/>
</svg>
</svg>